<?xml version="1.0" encoding="utf-8" standalone="no"?>
<!DOCTYPE svg PUBLIC "-//W3C//DTD SVG 1.1//EN"
  "http://www.w3.org/Graphics/SVG/1.1/DTD/svg11.dtd">
<svg xmlns:xlink="http://www.w3.org/1999/xlink" width="467.899375pt" height="280.301875pt" viewBox="0 0 467.899375 280.301875" xmlns="http://www.w3.org/2000/svg" version="1.1">
 <metadata>
  <rdf:RDF xmlns:dc="http://purl.org/dc/elements/1.1/" xmlns:cc="http://creativecommons.org/ns#" xmlns:rdf="http://www.w3.org/1999/02/22-rdf-syntax-ns#">
   <cc:Work>
    <dc:type rdf:resource="http://purl.org/dc/dcmitype/StillImage"/>
    <dc:date>2026-06-14T13:28:31.660699</dc:date>
    <dc:format>image/svg+xml</dc:format>
    <dc:creator>
     <cc:Agent>
      <dc:title>Matplotlib v3.9.4, https://matplotlib.org/</dc:title>
     </cc:Agent>
    </dc:creator>
   </cc:Work>
  </rdf:RDF>
 </metadata>
 <defs>
  <style type="text/css">*{stroke-linejoin: round; stroke-linecap: butt}</style>
 </defs>
 <g id="figure_1">
  <g id="patch_1">
   <path d="M 0 280.301875 
L 467.899375 280.301875 
L 467.899375 0 
L 0 0 
L 0 280.301875 
z
" style="fill: none; opacity: 0"/>
  </g>
  <g id="axes_1">
   <g id="patch_2">
    <path d="M 44.109375 243.88 
L 460.699375 243.88 
L 460.699375 7.2 
L 44.109375 7.2 
L 44.109375 243.88 
z
" style="fill: none; opacity: 0"/>
   </g>
   <g id="matplotlib.axis_1">
    <g id="xtick_1">
     <g id="line2d_1">
      <defs>
       <path id="m2c4e5fc408" d="M 0 0 
L 0 3.5 
" style="stroke: #6e6e73; stroke-width: 0.8"/>
      </defs>
      <g>
       <use xlink:href="#m2c4e5fc408" x="71.278288" y="243.88" style="fill: #6e6e73; stroke: #6e6e73; stroke-width: 0.8"/>
      </g>
     </g>
     <g id="text_1">
      <text style="fill: #6e6e73; font: 10px 'Helvetica Neue', 'PingFang SC', 'Arial Unicode MS', 'DejaVu Sans', sans-serif; text-anchor: middle" x="71.278288" y="258.020625" transform="rotate(-0 71.278288 258.020625)">1</text>
     </g>
    </g>
    <g id="xtick_2">
     <g id="line2d_2">
      <g>
       <use xlink:href="#m2c4e5fc408" x="161.841332" y="243.88" style="fill: #6e6e73; stroke: #6e6e73; stroke-width: 0.8"/>
      </g>
     </g>
     <g id="text_2">
      <text style="fill: #6e6e73; font: 10px 'Helvetica Neue', 'PingFang SC', 'Arial Unicode MS', 'DejaVu Sans', sans-serif; text-anchor: middle" x="161.841332" y="258.020625" transform="rotate(-0 161.841332 258.020625)">2</text>
     </g>
    </g>
    <g id="xtick_3">
     <g id="line2d_3">
      <g>
       <use xlink:href="#m2c4e5fc408" x="252.404375" y="243.88" style="fill: #6e6e73; stroke: #6e6e73; stroke-width: 0.8"/>
      </g>
     </g>
     <g id="text_3">
      <text style="fill: #6e6e73; font: 10px 'Helvetica Neue', 'PingFang SC', 'Arial Unicode MS', 'DejaVu Sans', sans-serif; text-anchor: middle" x="252.404375" y="258.020625" transform="rotate(-0 252.404375 258.020625)">3</text>
     </g>
    </g>
    <g id="xtick_4">
     <g id="line2d_4">
      <g>
       <use xlink:href="#m2c4e5fc408" x="342.967418" y="243.88" style="fill: #6e6e73; stroke: #6e6e73; stroke-width: 0.8"/>
      </g>
     </g>
     <g id="text_4">
      <text style="fill: #6e6e73; font: 10px 'Helvetica Neue', 'PingFang SC', 'Arial Unicode MS', 'DejaVu Sans', sans-serif; text-anchor: middle" x="342.967418" y="258.020625" transform="rotate(-0 342.967418 258.020625)">4</text>
     </g>
    </g>
    <g id="xtick_5">
     <g id="line2d_5">
      <g>
       <use xlink:href="#m2c4e5fc408" x="433.530462" y="243.88" style="fill: #6e6e73; stroke: #6e6e73; stroke-width: 0.8"/>
      </g>
     </g>
     <g id="text_5">
      <text style="fill: #6e6e73; font: 10px 'Helvetica Neue', 'PingFang SC', 'Arial Unicode MS', 'DejaVu Sans', sans-serif; text-anchor: middle" x="433.530462" y="258.020625" transform="rotate(-0 433.530462 258.020625)">5</text>
     </g>
    </g>
    <g id="text_6">
     <text style="fill: #1d1d1f; font: 10px 'Helvetica Neue', 'PingFang SC', 'Arial Unicode MS', 'DejaVu Sans', sans-serif; text-anchor: middle" x="252.404375" y="271.131562" transform="rotate(-0 252.404375 271.131562)">Quantum number  n</text>
    </g>
   </g>
   <g id="matplotlib.axis_2">
    <g id="ytick_1">
     <g id="line2d_6">
      <path d="M 44.109375 243.88 
L 460.699375 243.88 
" clip-path="url(#pe46e17e66e)" style="fill: none; stroke: #d2d2d7; stroke-opacity: 0.8; stroke-width: 0.8; stroke-linecap: square"/>
     </g>
     <g id="line2d_7">
      <defs>
       <path id="mb971129534" d="M 0 0 
L -3.5 0 
" style="stroke: #6e6e73; stroke-width: 0.8"/>
      </defs>
      <g>
       <use xlink:href="#mb971129534" x="44.109375" y="243.88" style="fill: #6e6e73; stroke: #6e6e73; stroke-width: 0.8"/>
      </g>
     </g>
     <g id="text_7">
      <text style="fill: #6e6e73; font: 10px 'Helvetica Neue', 'PingFang SC', 'Arial Unicode MS', 'DejaVu Sans', sans-serif; text-anchor: end" x="37.109375" y="247.450312" transform="rotate(-0 37.109375 247.450312)">0</text>
     </g>
    </g>
    <g id="ytick_2">
     <g id="line2d_8">
      <path d="M 44.109375 172.158788 
L 460.699375 172.158788 
" clip-path="url(#pe46e17e66e)" style="fill: none; stroke: #d2d2d7; stroke-opacity: 0.8; stroke-width: 0.8; stroke-linecap: square"/>
     </g>
     <g id="line2d_9">
      <g>
       <use xlink:href="#mb971129534" x="44.109375" y="172.158788" style="fill: #6e6e73; stroke: #6e6e73; stroke-width: 0.8"/>
      </g>
     </g>
     <g id="text_8">
      <text style="fill: #6e6e73; font: 10px 'Helvetica Neue', 'PingFang SC', 'Arial Unicode MS', 'DejaVu Sans', sans-serif; text-anchor: end" x="37.109375" y="175.7291" transform="rotate(-0 37.109375 175.7291)">40</text>
     </g>
    </g>
    <g id="ytick_3">
     <g id="line2d_10">
      <path d="M 44.109375 100.437576 
L 460.699375 100.437576 
" clip-path="url(#pe46e17e66e)" style="fill: none; stroke: #d2d2d7; stroke-opacity: 0.8; stroke-width: 0.8; stroke-linecap: square"/>
     </g>
     <g id="line2d_11">
      <g>
       <use xlink:href="#mb971129534" x="44.109375" y="100.437576" style="fill: #6e6e73; stroke: #6e6e73; stroke-width: 0.8"/>
      </g>
     </g>
     <g id="text_9">
      <text style="fill: #6e6e73; font: 10px 'Helvetica Neue', 'PingFang SC', 'Arial Unicode MS', 'DejaVu Sans', sans-serif; text-anchor: end" x="37.109375" y="104.007888" transform="rotate(-0 37.109375 104.007888)">80</text>
     </g>
    </g>
    <g id="ytick_4">
     <g id="line2d_12">
      <path d="M 44.109375 28.716364 
L 460.699375 28.716364 
" clip-path="url(#pe46e17e66e)" style="fill: none; stroke: #d2d2d7; stroke-opacity: 0.8; stroke-width: 0.8; stroke-linecap: square"/>
     </g>
     <g id="line2d_13">
      <g>
       <use xlink:href="#mb971129534" x="44.109375" y="28.716364" style="fill: #6e6e73; stroke: #6e6e73; stroke-width: 0.8"/>
      </g>
     </g>
     <g id="text_10">
      <text style="fill: #6e6e73; font: 10px 'Helvetica Neue', 'PingFang SC', 'Arial Unicode MS', 'DejaVu Sans', sans-serif; text-anchor: end" x="37.109375" y="32.286676" transform="rotate(-0 37.109375 32.286676)">120</text>
     </g>
    </g>
    <g id="text_11">
     <text style="fill: #1d1d1f; font: 10px 'Helvetica Neue', 'PingFang SC', 'Arial Unicode MS', 'DejaVu Sans', sans-serif; text-anchor: middle" x="14.340625" y="125.54" transform="rotate(-90 14.340625 125.54)">Energy  E</text>
    </g>
   </g>
   <g id="line2d_14">
    <path d="M 71.278288 235.03175 
L 161.841332 208.487 
L 252.404375 164.245751 
L 342.967418 102.308002 
L 433.530462 22.673753 
" clip-path="url(#pe46e17e66e)" style="fill: none; stroke: #1d1d1f; stroke-width: 2; stroke-linecap: square"/>
    <defs>
     <path id="m2cb899d076" d="M 0 3.5 
C 0.928211 3.5 1.81853 3.131218 2.474874 2.474874 
C 3.131218 1.81853 3.5 0.928211 3.5 0 
C 3.5 -0.928211 3.131218 -1.81853 2.474874 -2.474874 
C 1.81853 -3.131218 0.928211 -3.5 0 -3.5 
C -0.928211 -3.5 -1.81853 -3.131218 -2.474874 -2.474874 
C -3.131218 -1.81853 -3.5 -0.928211 -3.5 0 
C -3.5 0.928211 -3.131218 1.81853 -2.474874 2.474874 
C -1.81853 3.131218 -0.928211 3.5 0 3.5 
z
" style="stroke: #1d1d1f; stroke-width: 1.8"/>
    </defs>
    <g clip-path="url(#pe46e17e66e)">
     <use xlink:href="#m2cb899d076" x="71.278288" y="235.03175" style="fill: #ffffff; stroke: #1d1d1f; stroke-width: 1.8"/>
     <use xlink:href="#m2cb899d076" x="161.841332" y="208.487" style="fill: #ffffff; stroke: #1d1d1f; stroke-width: 1.8"/>
     <use xlink:href="#m2cb899d076" x="252.404375" y="164.245751" style="fill: #ffffff; stroke: #1d1d1f; stroke-width: 1.8"/>
     <use xlink:href="#m2cb899d076" x="342.967418" y="102.308002" style="fill: #ffffff; stroke: #1d1d1f; stroke-width: 1.8"/>
     <use xlink:href="#m2cb899d076" x="433.530462" y="22.673753" style="fill: #ffffff; stroke: #1d1d1f; stroke-width: 1.8"/>
    </g>
   </g>
   <g id="patch_3">
    <path d="M 44.109375 243.88 
L 44.109375 7.2 
" style="fill: none; stroke: #1d1d1f; stroke-width: 0.8; stroke-linejoin: miter; stroke-linecap: square"/>
   </g>
   <g id="patch_4">
    <path d="M 44.109375 243.88 
L 460.699375 243.88 
" style="fill: none; stroke: #1d1d1f; stroke-width: 0.8; stroke-linejoin: miter; stroke-linecap: square"/>
   </g>
   <g id="line2d_15">
    <path d="M 71.278288 235.032463 
L 161.841332 208.498413 
L 252.404375 164.30352 
L 342.967418 102.490538 
L 433.530462 23.119269 
" clip-path="url(#pe46e17e66e)" style="fill: none; stroke: #0071e3; stroke-width: 3; stroke-linecap: square"/>
    <defs>
     <path id="mce5b7e5f96" d="M 0 2.5 
C 0.663008 2.5 1.29895 2.236584 1.767767 1.767767 
C 2.236584 1.29895 2.5 0.663008 2.5 0 
C 2.5 -0.663008 2.236584 -1.29895 1.767767 -1.767767 
C 1.29895 -2.236584 0.663008 -2.5 0 -2.5 
C -0.663008 -2.5 -1.29895 -2.236584 -1.767767 -1.767767 
C -2.236584 -1.29895 -2.5 -0.663008 -2.5 0 
C -2.5 0.663008 -2.236584 1.29895 -1.767767 1.767767 
C -1.29895 2.236584 -0.663008 2.5 0 2.5 
z
" style="stroke: #0071e3"/>
    </defs>
    <g clip-path="url(#pe46e17e66e)">
     <use xlink:href="#mce5b7e5f96" x="71.278288" y="235.032463" style="fill: #0071e3; stroke: #0071e3"/>
     <use xlink:href="#mce5b7e5f96" x="161.841332" y="208.498413" style="fill: #0071e3; stroke: #0071e3"/>
     <use xlink:href="#mce5b7e5f96" x="252.404375" y="164.30352" style="fill: #0071e3; stroke: #0071e3"/>
     <use xlink:href="#mce5b7e5f96" x="342.967418" y="102.490538" style="fill: #0071e3; stroke: #0071e3"/>
     <use xlink:href="#mce5b7e5f96" x="433.530462" y="23.119269" style="fill: #0071e3; stroke: #0071e3"/>
    </g>
   </g>
   <g id="legend_1">
    <g id="line2d_16">
     <path d="M 53.109375 19.840625 
L 63.109375 19.840625 
L 73.109375 19.840625 
" style="fill: none; stroke: #1d1d1f; stroke-width: 2; stroke-linecap: square"/>
     <g>
      <use xlink:href="#m2cb899d076" x="63.109375" y="19.840625" style="fill: #ffffff; stroke: #1d1d1f; stroke-width: 1.8"/>
     </g>
    </g>
    <g id="text_12">
     <text style="font: 10px 'Helvetica Neue', 'PingFang SC', 'Arial Unicode MS', 'DejaVu Sans', sans-serif; text-anchor: start" x="81.109375" y="23.340625" transform="rotate(-0 81.109375 23.340625)">Analytical</text>
    </g>
    <g id="line2d_17">
     <path d="M 144.070312 19.840625 
L 154.070312 19.840625 
L 164.070312 19.840625 
" style="fill: none; stroke: #0071e3; stroke-width: 3; stroke-linecap: square"/>
     <g>
      <use xlink:href="#mce5b7e5f96" x="154.070312" y="19.840625" style="fill: #0071e3; stroke: #0071e3"/>
     </g>
    </g>
    <g id="text_13">
     <text style="font: 10px 'Helvetica Neue', 'PingFang SC', 'Arial Unicode MS', 'DejaVu Sans', sans-serif; text-anchor: start" x="172.070312" y="23.340625" transform="rotate(-0 172.070312 23.340625)">Finite difference</text>
    </g>
   </g>
  </g>
 </g>
 <defs>
  <clipPath id="pe46e17e66e">
   <rect x="44.109375" y="7.2" width="416.59" height="236.68"/>
  </clipPath>
 </defs>
</svg>
